{
	"asset":{
		"generator":"Khronos glTF Blender I/O v4.2.70",
		"version":"2.0"
	},
	"scene":0,
	"scenes":[
		{
			"name":"Scene",
			"nodes":[
				0
			]
		}
	],
	"nodes":[
		{
			"mesh":0,
			"name":"D10.marble-convcol"
		}
	],
	"materials":[
		{
			"doubleSided":true,
			"name":"Material.D10.marble",
			"pbrMetallicRoughness":{
				"baseColorTexture":{
					"index":0
				},
				"metallicFactor":0,
				"roughnessFactor":0.5
			}
		}
	],
	"meshes":[
		{
			"name":"Cone.003",
			"primitives":[
				{
					"attributes":{
						"POSITION":0,
						"NORMAL":1,
						"TEXCOORD_0":2
					},
					"indices":3,
					"material":0
				}
			]
		}
	],
	"textures":[
		{
			"sampler":0,
			"source":0
		}
	],
	"images":[
		{
			"mimeType":"image/png",
			"name":"D10 Base Color - Marble",
			"uri":"D10%20Base%20Color%20-%20Marble.png"
		}
	],
	"accessors":[
		{
			"bufferView":0,
			"componentType":5126,
			"count":3537,
			"max":[
				0.8467068672180176,
				0.9889018535614014,
				0.8889353275299072
			],
			"min":[
				-0.8467068672180176,
				-0.9889018535614014,
				-0.8889353275299072
			],
			"type":"VEC3"
		},
		{
			"bufferView":1,
			"componentType":5126,
			"count":3537,
			"type":"VEC3"
		},
		{
			"bufferView":2,
			"componentType":5126,
			"count":3537,
			"type":"VEC2"
		},
		{
			"bufferView":3,
			"componentType":5123,
			"count":7836,
			"type":"SCALAR"
		}
	],
	"bufferViews":[
		{
			"buffer":0,
			"byteLength":42444,
			"byteOffset":0,
			"target":34962
		},
		{
			"buffer":0,
			"byteLength":42444,
			"byteOffset":42444,
			"target":34962
		},
		{
			"buffer":0,
			"byteLength":28296,
			"byteOffset":84888,
			"target":34962
		},
		{
			"buffer":0,
			"byteLength":15672,
			"byteOffset":113184,
			"target":34963
		}
	],
	"samplers":[
		{
			"magFilter":9729,
			"minFilter":9987
		}
	],
	"buffers":[
		{
			"byteLength":128856,
			"uri":"D10-Marble.bin"
		}
	]
}
