{
	"asset":{
		"generator":"Khronos glTF Blender I/O v4.2.70",
		"version":"2.0"
	},
	"scene":0,
	"scenes":[
		{
			"name":"Scene",
			"nodes":[
				0
			]
		}
	],
	"nodes":[
		{
			"mesh":0,
			"name":"D6.marble-convcol"
		}
	],
	"materials":[
		{
			"doubleSided":true,
			"name":"Material.002",
			"pbrMetallicRoughness":{
				"baseColorTexture":{
					"index":0
				},
				"metallicFactor":0,
				"roughnessFactor":0.5
			}
		}
	],
	"meshes":[
		{
			"name":"Cube.002",
			"primitives":[
				{
					"attributes":{
						"POSITION":0,
						"NORMAL":1,
						"TEXCOORD_0":2
					},
					"indices":3,
					"material":0
				}
			]
		}
	],
	"textures":[
		{
			"sampler":0,
			"source":0
		}
	],
	"images":[
		{
			"mimeType":"image/png",
			"name":"D6 Base Color - Marble",
			"uri":"D6%20Base%20Color%20-%20Marble.png"
		}
	],
	"accessors":[
		{
			"bufferView":0,
			"componentType":5126,
			"count":1109,
			"max":[
				1,
				1,
				1
			],
			"min":[
				-1,
				-1,
				-1
			],
			"type":"VEC3"
		},
		{
			"bufferView":1,
			"componentType":5126,
			"count":1109,
			"type":"VEC3"
		},
		{
			"bufferView":2,
			"componentType":5126,
			"count":1109,
			"type":"VEC2"
		},
		{
			"bufferView":3,
			"componentType":5123,
			"count":2964,
			"type":"SCALAR"
		}
	],
	"bufferViews":[
		{
			"buffer":0,
			"byteLength":13308,
			"byteOffset":0,
			"target":34962
		},
		{
			"buffer":0,
			"byteLength":13308,
			"byteOffset":13308,
			"target":34962
		},
		{
			"buffer":0,
			"byteLength":8872,
			"byteOffset":26616,
			"target":34962
		},
		{
			"buffer":0,
			"byteLength":5928,
			"byteOffset":35488,
			"target":34963
		}
	],
	"samplers":[
		{
			"magFilter":9729,
			"minFilter":9987
		}
	],
	"buffers":[
		{
			"byteLength":41416,
			"uri":"D6-Marble.bin"
		}
	]
}
