{
	"asset":{
		"generator":"Khronos glTF Blender I/O v4.2.70",
		"version":"2.0"
	},
	"scene":0,
	"scenes":[
		{
			"name":"Scene",
			"nodes":[
				0
			]
		}
	],
	"nodes":[
		{
			"mesh":0,
			"name":"D8.marble-convcol"
		}
	],
	"materials":[
		{
			"doubleSided":true,
			"name":"Material.D8",
			"pbrMetallicRoughness":{
				"baseColorTexture":{
					"index":0
				},
				"metallicFactor":0,
				"roughnessFactor":0.5
			}
		}
	],
	"meshes":[
		{
			"name":"Cone.007",
			"primitives":[
				{
					"attributes":{
						"POSITION":0,
						"NORMAL":1,
						"TEXCOORD_0":2
					},
					"indices":3,
					"material":0
				}
			]
		}
	],
	"textures":[
		{
			"sampler":0,
			"source":0
		}
	],
	"images":[
		{
			"mimeType":"image/png",
			"name":"D8 Base Color - Marble",
			"uri":"D8%20Base%20Color%20-%20Marble.png"
		}
	],
	"accessors":[
		{
			"bufferView":0,
			"componentType":5126,
			"count":2251,
			"max":[
				0.9896503686904907,
				0.989650309085846,
				0.989650309085846
			],
			"min":[
				-0.989650309085846,
				-0.989650309085846,
				-0.9896503686904907
			],
			"type":"VEC3"
		},
		{
			"bufferView":1,
			"componentType":5126,
			"count":2251,
			"type":"VEC3"
		},
		{
			"bufferView":2,
			"componentType":5126,
			"count":2251,
			"type":"VEC2"
		},
		{
			"bufferView":3,
			"componentType":5123,
			"count":5184,
			"type":"SCALAR"
		}
	],
	"bufferViews":[
		{
			"buffer":0,
			"byteLength":27012,
			"byteOffset":0,
			"target":34962
		},
		{
			"buffer":0,
			"byteLength":27012,
			"byteOffset":27012,
			"target":34962
		},
		{
			"buffer":0,
			"byteLength":18008,
			"byteOffset":54024,
			"target":34962
		},
		{
			"buffer":0,
			"byteLength":10368,
			"byteOffset":72032,
			"target":34963
		}
	],
	"samplers":[
		{
			"magFilter":9729,
			"minFilter":9987
		}
	],
	"buffers":[
		{
			"byteLength":82400,
			"uri":"D8-Marble.bin"
		}
	]
}
